<svg xmlns="http://www.w3.org/2000/svg" xmlns:xlink="http://www.w3.org/1999/xlink" width="400" zoomAndPan="magnify" viewBox="0 0 300 149.999998" height="200" preserveAspectRatio="xMidYMid meet" version="1.0"><defs><g/></defs><g fill="#ffffff" fill-opacity="1"><g transform="translate(70.829983, 67.501152)"><g><path d="M 18.59375 0 L 2.65625 0 L 2.65625 -23.828125 L 18.59375 -23.828125 C 25.113281 -23.828125 29.800781 -22.910156 32.65625 -21.078125 C 34.957031 -19.609375 36.269531 -17.609375 36.59375 -15.078125 C 36.738281 -13.984375 36.8125 -12.925781 36.8125 -11.90625 C 36.8125 -10.894531 36.738281 -9.835938 36.59375 -8.734375 C 36.457031 -7.640625 36.085938 -6.570312 35.484375 -5.53125 C 34.890625 -4.5 33.941406 -3.566406 32.640625 -2.734375 C 31.347656 -1.910156 29.566406 -1.25 27.296875 -0.75 C 25.035156 -0.25 22.132812 0 18.59375 0 Z M 17.640625 -5.890625 C 22.722656 -5.890625 25.597656 -7.175781 26.265625 -9.75 C 26.441406 -10.46875 26.53125 -11.1875 26.53125 -11.90625 C 26.53125 -12.632812 26.4375 -13.351562 26.25 -14.0625 C 26.070312 -14.78125 25.6875 -15.429688 25.09375 -16.015625 C 24.5 -16.597656 23.609375 -17.0625 22.421875 -17.40625 C 21.242188 -17.757812 19.648438 -17.9375 17.640625 -17.9375 L 12.65625 -17.9375 L 12.65625 -5.890625 Z M 17.640625 -5.890625 "/></g></g></g><g fill="#ffffff" fill-opacity="1"><g transform="translate(108.959394, 67.501152)"><g><path d="M 12.65625 0 L 2.65625 0 L 2.65625 -23.828125 L 12.65625 -23.828125 Z M 12.65625 0 "/></g></g></g><g fill="#ffffff" fill-opacity="1"><g transform="translate(124.264275, 67.501152)"><g><path d="M 31.34375 0 L 2.65625 0 L 2.65625 -23.828125 L 30.03125 -23.828125 L 30.03125 -17.9375 L 12.65625 -17.9375 L 12.65625 -14.1875 L 27.34375 -14.1875 L 27.34375 -9.609375 L 12.65625 -9.609375 L 12.65625 -5.890625 L 31.34375 -5.890625 Z M 31.34375 0 "/></g></g></g><g fill="#ffffff" fill-opacity="1"><g transform="translate(156.932394, 67.501152)"><g><path d="M 18.015625 0.515625 C 12.128906 0.515625 7.796875 -0.695312 5.015625 -3.125 C 2.554688 -5.269531 1.328125 -8.191406 1.328125 -11.890625 C 1.328125 -15.597656 2.554688 -18.523438 5.015625 -20.671875 C 7.796875 -23.097656 12.128906 -24.3125 18.015625 -24.3125 C 21.367188 -24.3125 24.15625 -23.929688 26.375 -23.171875 C 28.601562 -22.421875 30.347656 -21.394531 31.609375 -20.09375 C 32.878906 -18.789062 33.75 -17.296875 34.21875 -15.609375 L 23.53125 -15.609375 C 22.40625 -17.140625 20.566406 -17.90625 18.015625 -17.90625 C 15.597656 -17.90625 13.820312 -17.21875 12.6875 -15.84375 C 11.78125 -14.71875 11.328125 -13.398438 11.328125 -11.890625 C 11.328125 -10.367188 11.78125 -9.054688 12.6875 -7.953125 C 13.820312 -6.566406 15.597656 -5.875 18.015625 -5.875 C 19.960938 -5.875 21.425781 -6.039062 22.40625 -6.375 C 23.382812 -6.71875 24.097656 -7.160156 24.546875 -7.703125 L 20.65625 -7.703125 L 20.65625 -11.890625 L 34.21875 -11.890625 L 34.21875 0.015625 L 30.0625 0.015625 L 29.21875 -2.296875 C 26.570312 -0.421875 22.835938 0.515625 18.015625 0.515625 Z M 18.015625 0.515625 "/></g></g></g><g fill="#ffffff" fill-opacity="1"><g transform="translate(193.136246, 67.501152)"><g><path d="M 18.015625 0.515625 C 12.128906 0.515625 7.796875 -0.695312 5.015625 -3.125 C 2.554688 -5.269531 1.328125 -8.195312 1.328125 -11.90625 C 1.328125 -15.601562 2.554688 -18.523438 5.015625 -20.671875 C 7.796875 -23.097656 12.128906 -24.3125 18.015625 -24.3125 C 23.898438 -24.3125 28.234375 -23.097656 31.015625 -20.671875 C 33.472656 -18.523438 34.703125 -15.601562 34.703125 -11.90625 C 34.703125 -8.195312 33.472656 -5.269531 31.015625 -3.125 C 28.234375 -0.695312 23.898438 0.515625 18.015625 0.515625 Z M 18.015625 -5.875 C 20.421875 -5.875 22.191406 -6.566406 23.328125 -7.953125 C 24.234375 -9.066406 24.6875 -10.382812 24.6875 -11.90625 C 24.6875 -13.414062 24.234375 -14.726562 23.328125 -15.84375 C 22.191406 -17.238281 20.421875 -17.9375 18.015625 -17.9375 C 15.597656 -17.9375 13.820312 -17.238281 12.6875 -15.84375 C 11.78125 -14.726562 11.328125 -13.414062 11.328125 -11.90625 C 11.328125 -10.382812 11.78125 -9.066406 12.6875 -7.953125 C 13.820312 -6.566406 15.597656 -5.875 18.015625 -5.875 Z M 18.015625 -5.875 "/></g></g></g><path stroke-linecap="butt" transform="matrix(0.75, 0, 0, 0.75, 2.201771, 69.097066)" fill="none" stroke-linejoin="miter" d="M 71.923685 28.000789 L 62.126809 28.000789 L 62.126809 13.110163 L 53.3716 28.000789 L 46.064308 28.000789 L 37.324724 13.110163 L 37.324724 28.000789 L 27.527849 28.000789 L 27.527849 4.646621 L 39.163266 4.646621 L 49.725767 21.328913 L 60.267434 4.646621 L 71.923685 4.646621 Z M 113.746604 28.000789 L 103.81952 28.000789 L 101.621603 24.177872 L 86.892436 24.177872 L 84.694519 28.000789 L 74.767435 28.000789 L 89.704936 4.662246 L 98.803895 4.662246 Z M 98.314311 18.396621 L 94.262228 11.318496 L 90.194519 18.396621 Z M 143.850772 28.000789 L 116.590354 28.000789 L 116.590354 4.646621 L 126.38723 4.646621 L 126.38723 22.224747 L 143.850772 22.224747 Z M 162.725773 28.000789 L 147.105981 28.000789 L 147.105981 4.646621 L 162.725773 4.646621 C 169.116399 4.646621 173.710149 5.542454 176.512233 7.328912 C 178.767441 8.776829 180.053899 10.740371 180.366399 13.224746 C 180.507024 14.297663 180.579941 15.334121 180.579941 16.328913 C 180.579941 17.318496 180.512233 18.349746 180.376816 19.43308 C 180.241399 20.511205 179.882024 21.55808 179.293483 22.573705 C 178.710149 23.58933 177.777858 24.500788 176.501816 25.313289 C 175.225774 26.130997 173.480982 26.77683 171.262232 27.266414 C 169.043482 27.755997 166.199732 28.000789 162.725773 28.000789 Z M 161.79869 22.224747 C 166.777857 22.224747 169.595565 20.96433 170.246607 18.448705 C 170.418482 17.740371 170.507024 17.037246 170.507024 16.328913 C 170.507024 15.615371 170.418482 14.907038 170.236191 14.209121 C 170.059107 13.505996 169.678899 12.870579 169.100774 12.302871 C 168.51744 11.735163 167.647649 11.276829 166.48619 10.938288 C 165.324732 10.594538 163.762232 10.422663 161.79869 10.422663 L 156.902856 10.422663 L 156.902856 22.224747 Z M 199.538276 28.505997 C 193.767442 28.505997 189.517442 27.318497 186.793483 24.938288 C 184.387233 22.834122 183.184108 19.96433 183.184108 16.328913 C 183.184108 12.709121 184.387233 9.844538 186.793483 7.740371 C 189.517442 5.360162 193.767442 4.172662 199.538276 4.172662 C 205.309109 4.172662 209.559109 5.360162 212.27786 7.740371 C 214.689318 9.844538 215.892443 12.709121 215.892443 16.328913 C 215.892443 19.96433 214.689318 22.834122 212.27786 24.938288 C 209.559109 27.318497 205.309109 28.505997 199.538276 28.505997 Z M 199.538276 22.240372 C 201.902859 22.240372 203.637234 21.563288 204.746609 20.203913 C 205.637234 19.110163 206.079943 17.818496 206.079943 16.328913 C 206.079943 14.844538 205.637234 13.558079 204.746609 12.474746 C 203.637234 11.104954 201.902859 10.422663 199.538276 10.422663 C 197.173692 10.422663 195.4289 11.104954 194.314317 12.474746 C 193.423692 13.558079 192.980984 14.844538 192.980984 16.328913 C 192.980984 17.818496 193.423692 19.110163 194.314317 20.203913 C 195.4289 21.563288 197.173692 22.240372 199.538276 22.240372 Z M 254.444529 28.000789 L 242.793486 28.000789 L 229.595569 12.198704 L 229.595569 28.000789 L 219.798693 28.000789 L 219.798693 4.646621 L 231.449736 4.646621 L 244.647653 20.365372 L 244.647653 4.646621 L 254.444529 4.646621 Z M 296.267448 28.000789 L 286.340364 28.000789 L 284.142447 24.177872 L 269.41328 24.177872 L 267.220571 28.000789 L 257.293487 28.000789 L 272.230988 4.662246 L 281.329947 4.662246 Z M 280.840364 18.396621 L 276.78828 11.318496 L 272.720572 18.396621 Z M 314.736199 28.000789 L 299.116406 28.000789 L 299.116406 4.646621 L 314.736199 4.646621 C 321.126824 4.646621 325.720575 5.542454 328.522658 7.328912 C 330.777867 8.776829 332.064325 10.740371 332.376825 13.224746 C 332.522658 14.297663 332.590367 15.334121 332.590367 16.328913 C 332.590367 17.318496 332.522658 18.349746 332.387242 19.43308 C 332.251825 20.511205 331.89245 21.55808 331.303908 22.573705 C 330.720575 23.58933 329.788283 24.500788 328.512241 25.313289 C 327.241408 26.130997 325.491408 26.77683 323.272658 27.266414 C 321.053908 27.755997 318.210158 28.000789 314.736199 28.000789 Z M 313.809116 22.224747 C 318.788283 22.224747 321.605991 20.96433 322.257033 18.448705 C 322.428908 17.740371 322.517449 17.037246 322.517449 16.328913 C 322.517449 15.615371 322.428908 14.907038 322.246616 14.209121 C 322.069533 13.505996 321.689324 12.870579 321.111199 12.302871 C 320.527866 11.735163 319.658074 11.276829 318.496616 10.938288 C 317.335157 10.594538 315.772657 10.422663 313.809116 10.422663 L 308.913282 10.422663 L 308.913282 22.224747 Z M 351.548701 28.505997 C 345.777867 28.505997 341.527867 27.318497 338.803909 24.938288 C 336.397659 22.834122 335.194533 19.96433 335.194533 16.328913 C 335.194533 12.709121 336.397659 9.844538 338.803909 7.740371 C 341.527867 5.360162 345.777867 4.172662 351.548701 4.172662 C 357.319535 4.172662 361.569535 5.360162 364.293494 7.740371 C 366.699744 9.844538 367.902869 12.709121 367.902869 16.328913 C 367.902869 19.96433 366.699744 22.834122 364.293494 24.938288 C 361.569535 27.318497 357.319535 28.505997 351.548701 28.505997 Z M 351.548701 22.240372 C 353.913285 22.240372 355.64766 21.563288 356.757035 20.203913 C 357.64766 19.110163 358.090368 17.818496 358.090368 16.328913 C 358.090368 14.844538 357.64766 13.558079 356.757035 12.474746 C 355.64766 11.104954 353.913285 10.422663 351.548701 10.422663 C 349.184118 10.422663 347.439326 11.104954 346.324742 12.474746 C 345.434117 13.558079 344.991409 14.844538 344.991409 16.328913 C 344.991409 17.818496 345.434117 19.110163 346.324742 20.203913 C 347.439326 21.563288 349.184118 22.240372 351.548701 22.240372 Z M 351.548701 22.240372 " stroke="#38b6ff" stroke-width="1.250003" stroke-opacity="1" stroke-miterlimit="4"/><g fill="#ffffff" fill-opacity="1"><g transform="translate(84.433091, 102.722041)"><g><path d="M 6.4375 -5.21875 L 7.34375 -5.21875 L 5.8125 0 L 4.84375 0 L 3.75 -3.9375 L 2.578125 0 L 1.625 0 L 0.140625 -5.21875 L 1.046875 -5.21875 L 2.125 -0.96875 L 3.296875 -5.21875 L 4.265625 -5.21875 L 5.34375 -0.984375 Z M 6.4375 -5.21875 "/></g></g></g><g fill="#ffffff" fill-opacity="1"><g transform="translate(97.925593, 102.722041)"><g><path d="M 3.4375 -5.21875 L 3.4375 -4.546875 L 1.421875 -4.546875 L 1.421875 -2.96875 L 3.21875 -2.96875 L 3.21875 -2.3125 L 1.421875 -2.3125 L 1.421875 -0.671875 L 3.4375 -0.671875 L 3.4375 0 L 0.5625 0 L 0.5625 -5.21875 Z M 3.4375 -5.21875 "/></g></g></g><g fill="#ffffff" fill-opacity="1"><g transform="translate(107.855582, 102.722041)"><g><path d="M 0.5625 -5.21875 L 2.546875 -5.21875 C 3.085938 -5.21875 3.503906 -5.085938 3.796875 -4.828125 C 4.085938 -4.566406 4.234375 -4.234375 4.234375 -3.828125 C 4.234375 -3.242188 3.894531 -2.859375 3.21875 -2.671875 C 3.5625 -2.617188 3.835938 -2.46875 4.046875 -2.21875 C 4.253906 -1.976562 4.359375 -1.695312 4.359375 -1.375 C 4.359375 -0.96875 4.203125 -0.632812 3.890625 -0.375 C 3.578125 -0.125 3.160156 0 2.640625 0 L 0.5625 0 Z M 1.421875 -4.546875 L 1.421875 -3 L 2.46875 -3 C 2.75 -3 2.96875 -3.066406 3.125 -3.203125 C 3.289062 -3.335938 3.375 -3.523438 3.375 -3.765625 C 3.375 -4.003906 3.289062 -4.191406 3.125 -4.328125 C 2.96875 -4.472656 2.75 -4.546875 2.46875 -4.546875 Z M 1.421875 -0.671875 L 2.578125 -0.671875 C 2.859375 -0.671875 3.082031 -0.742188 3.25 -0.890625 C 3.414062 -1.035156 3.5 -1.234375 3.5 -1.484375 C 3.5 -1.742188 3.410156 -1.945312 3.234375 -2.09375 C 3.066406 -2.25 2.835938 -2.328125 2.546875 -2.328125 L 1.421875 -2.328125 Z M 1.421875 -0.671875 "/></g></g></g><g fill="#ffffff" fill-opacity="1"><g transform="translate(118.580581, 102.722041)"><g/></g></g><g fill="#ffffff" fill-opacity="1"><g transform="translate(126.830563, 102.722041)"><g><path d="M 1.421875 -0.65625 L 2.265625 -0.65625 C 2.867188 -0.65625 3.332031 -0.828125 3.65625 -1.171875 C 3.988281 -1.515625 4.15625 -1.988281 4.15625 -2.59375 C 4.15625 -3.195312 3.988281 -3.664062 3.65625 -4 C 3.332031 -4.34375 2.867188 -4.515625 2.265625 -4.515625 L 1.421875 -4.515625 Z M 2.265625 -5.21875 C 3.109375 -5.21875 3.78125 -4.976562 4.28125 -4.5 C 4.78125 -4.03125 5.03125 -3.394531 5.03125 -2.59375 C 5.03125 -1.789062 4.78125 -1.15625 4.28125 -0.6875 C 3.78125 -0.226562 3.109375 0 2.265625 0 L 0.5625 0 L 0.5625 -5.21875 Z M 2.265625 -5.21875 "/></g></g></g><g fill="#ffffff" fill-opacity="1"><g transform="translate(138.148055, 102.722041)"><g><path d="M 3.4375 -5.21875 L 3.4375 -4.546875 L 1.421875 -4.546875 L 1.421875 -2.96875 L 3.21875 -2.96875 L 3.21875 -2.3125 L 1.421875 -2.3125 L 1.421875 -0.671875 L 3.4375 -0.671875 L 3.4375 0 L 0.5625 0 L 0.5625 -5.21875 Z M 3.4375 -5.21875 "/></g></g></g><g fill="#ffffff" fill-opacity="1"><g transform="translate(148.078043, 102.722041)"><g><path d="M 2.109375 0 L 0.140625 -5.21875 L 1.0625 -5.21875 L 2.59375 -0.890625 L 4.140625 -5.21875 L 5.0625 -5.21875 L 3.09375 0 Z M 2.109375 0 "/></g></g></g><g fill="#ffffff" fill-opacity="1"><g transform="translate(159.28304, 102.722041)"><g><path d="M 3.4375 -5.21875 L 3.4375 -4.546875 L 1.421875 -4.546875 L 1.421875 -2.96875 L 3.21875 -2.96875 L 3.21875 -2.3125 L 1.421875 -2.3125 L 1.421875 -0.671875 L 3.4375 -0.671875 L 3.4375 0 L 0.5625 0 L 0.5625 -5.21875 Z M 3.4375 -5.21875 "/></g></g></g><g fill="#ffffff" fill-opacity="1"><g transform="translate(169.213032, 102.722041)"><g><path d="M 0.5625 -5.21875 L 1.421875 -5.21875 L 1.421875 -0.65625 L 3.1875 -0.65625 L 3.1875 0 L 0.5625 0 Z M 0.5625 -5.21875 "/></g></g></g><g fill="#ffffff" fill-opacity="1"><g transform="translate(178.543022, 102.722041)"><g><path d="M 2.9375 -0.71875 C 3.46875 -0.71875 3.894531 -0.890625 4.21875 -1.234375 C 4.550781 -1.585938 4.71875 -2.046875 4.71875 -2.609375 C 4.71875 -3.179688 4.550781 -3.640625 4.21875 -3.984375 C 3.894531 -4.328125 3.46875 -4.5 2.9375 -4.5 C 2.414062 -4.5 1.988281 -4.328125 1.65625 -3.984375 C 1.320312 -3.640625 1.15625 -3.179688 1.15625 -2.609375 C 1.15625 -2.046875 1.320312 -1.585938 1.65625 -1.234375 C 1.988281 -0.890625 2.414062 -0.71875 2.9375 -0.71875 Z M 2.9375 0.046875 C 2.195312 0.046875 1.566406 -0.203125 1.046875 -0.703125 C 0.535156 -1.203125 0.28125 -1.835938 0.28125 -2.609375 C 0.28125 -3.378906 0.535156 -4.015625 1.046875 -4.515625 C 1.566406 -5.023438 2.195312 -5.28125 2.9375 -5.28125 C 3.6875 -5.28125 4.316406 -5.023438 4.828125 -4.515625 C 5.347656 -4.015625 5.609375 -3.378906 5.609375 -2.609375 C 5.609375 -1.835938 5.347656 -1.203125 4.828125 -0.703125 C 4.316406 -0.203125 3.6875 0.046875 2.9375 0.046875 Z M 2.9375 0.046875 "/></g></g></g><g fill="#ffffff" fill-opacity="1"><g transform="translate(190.423024, 102.722041)"><g><path d="M 2.359375 -5.21875 C 2.953125 -5.21875 3.40625 -5.066406 3.71875 -4.765625 C 4.039062 -4.472656 4.203125 -4.109375 4.203125 -3.671875 C 4.203125 -3.234375 4.050781 -2.863281 3.75 -2.5625 C 3.445312 -2.257812 2.984375 -2.109375 2.359375 -2.109375 L 1.421875 -2.109375 L 1.421875 0 L 0.5625 0 L 0.5625 -5.21875 Z M 1.421875 -2.78125 L 2.359375 -2.78125 C 2.679688 -2.78125 2.921875 -2.859375 3.078125 -3.015625 C 3.242188 -3.171875 3.328125 -3.382812 3.328125 -3.65625 C 3.328125 -3.9375 3.242188 -4.15625 3.078125 -4.3125 C 2.921875 -4.46875 2.679688 -4.546875 2.359375 -4.546875 L 1.421875 -4.546875 Z M 1.421875 -2.78125 "/></g></g></g><g fill="#ffffff" fill-opacity="1"><g transform="translate(200.885517, 102.722041)"><g><path d="M 3.4375 -5.21875 L 3.4375 -4.546875 L 1.421875 -4.546875 L 1.421875 -2.96875 L 3.21875 -2.96875 L 3.21875 -2.3125 L 1.421875 -2.3125 L 1.421875 -0.671875 L 3.4375 -0.671875 L 3.4375 0 L 0.5625 0 L 0.5625 -5.21875 Z M 3.4375 -5.21875 "/></g></g></g><g fill="#ffffff" fill-opacity="1"><g transform="translate(210.815509, 102.722041)"><g><path d="M 1.421875 -2.109375 L 1.421875 0 L 0.5625 0 L 0.5625 -5.21875 L 2.359375 -5.21875 C 2.953125 -5.21875 3.40625 -5.066406 3.71875 -4.765625 C 4.039062 -4.472656 4.203125 -4.101562 4.203125 -3.65625 C 4.203125 -3.3125 4.09375 -3 3.875 -2.71875 C 3.664062 -2.4375 3.34375 -2.253906 2.90625 -2.171875 L 4.296875 0 L 3.25 0 L 1.9375 -2.109375 Z M 1.421875 -4.546875 L 1.421875 -2.78125 L 2.359375 -2.78125 C 2.679688 -2.78125 2.921875 -2.859375 3.078125 -3.015625 C 3.242188 -3.171875 3.328125 -3.382812 3.328125 -3.65625 C 3.328125 -3.9375 3.242188 -4.15625 3.078125 -4.3125 C 2.921875 -4.46875 2.679688 -4.546875 2.359375 -4.546875 Z M 1.421875 -4.546875 "/></g></g></g></svg>